<svg width="26" height="25" viewBox="0 0 26 25" fill="none" xmlns="http://www.w3.org/2000/svg">
<path fill-rule="evenodd" clip-rule="evenodd" d="M7.903 9.40588C7.903 8.04596 8.3573 6.71469 9.22829 5.73483C10.0849 4.7711 11.3888 4.09566 13.2132 4.09566C15.0376 4.09566 16.3415 4.7711 17.1982 5.73483C18.0692 6.71469 18.5234 8.04596 18.5234 9.40588C18.5234 10.7047 19.1695 11.6725 19.662 12.4103L19.7018 12.4698C20.2362 13.2714 20.5857 13.8333 20.5857 14.5614C20.5857 15.566 19.8704 16.3739 18.3857 16.9704C16.9242 17.5576 14.9852 17.8094 13.2132 17.8094C11.4413 17.8094 9.50225 17.5576 8.04072 16.9704C6.55609 16.3739 5.84078 15.566 5.84078 14.5614C5.84078 13.8464 6.17508 13.3547 6.71528 12.577C7.23457 11.8294 7.903 10.8575 7.903 9.40588ZM13.2132 2.34277C10.9132 2.34277 9.12374 3.21401 7.91816 4.57027C6.72693 5.91041 6.15011 7.67247 6.15011 9.40588C6.15011 10.2653 5.78744 10.8402 5.27562 11.577L5.20371 11.6802C4.71951 12.3739 4.08789 13.2788 4.08789 14.5614C4.08789 16.6502 5.66394 17.9045 7.38721 18.5969C9.13359 19.2986 11.319 19.5623 13.2132 19.5623C15.1075 19.5623 17.2929 19.2986 19.0392 18.5969C20.7625 17.9045 22.3386 16.6502 22.3386 14.5614C22.3386 13.2627 21.6925 12.2948 21.2 11.5571L21.1602 11.4975C20.6258 10.6959 20.2763 10.1341 20.2763 9.40588C20.2763 7.67247 19.6995 5.91041 18.5083 4.57027C17.3027 3.21401 15.5133 2.34277 13.2132 2.34277ZM10.6648 20.0189C11.0644 19.7525 11.6032 19.8575 11.8739 20.2525L11.8804 20.2612C11.8897 20.2735 11.908 20.2966 11.935 20.3269C11.9895 20.3883 12.0759 20.4751 12.1924 20.5625C12.4229 20.7354 12.7585 20.9028 13.2132 20.9028C13.6679 20.9028 14.0035 20.7354 14.234 20.5625C14.3506 20.4751 14.4369 20.3883 14.4915 20.3269C14.5185 20.2966 14.5367 20.2735 14.5461 20.2612L14.5526 20.2525C14.8233 19.8575 15.362 19.7525 15.7616 20.0189C16.1644 20.2874 16.2732 20.8315 16.0047 21.2343L15.2754 20.7481C16.0047 21.2343 16.0045 21.2346 16.0042 21.2349L16.0038 21.2356L16.0028 21.2371L16.0006 21.2403L15.9954 21.2479L15.9817 21.2676C15.971 21.2826 15.9572 21.3015 15.9404 21.3236C15.9068 21.3677 15.8606 21.4252 15.8016 21.4915C15.6843 21.6234 15.5129 21.7945 15.2858 21.9648C14.8288 22.3075 14.1333 22.6557 13.2132 22.6557C12.2931 22.6557 11.5976 22.3075 11.1407 21.9648C10.9135 21.7945 10.7421 21.6234 10.6248 21.4915C10.5659 21.4252 10.5197 21.3677 10.4861 21.3236C10.4692 21.3015 10.4555 21.2826 10.4448 21.2676L10.431 21.2479L10.4258 21.2403L10.4236 21.2371L10.4227 21.2356L10.4222 21.2349C10.422 21.2346 10.4218 21.2343 11.151 20.7481L10.4218 21.2343C10.1533 20.8315 10.2621 20.2874 10.6648 20.0189Z" fill="black"/>
<path d="M25.5868 2.18722C25.5868 3.32616 24.6636 4.24944 23.5246 4.24944C22.3857 4.24944 21.4624 3.32616 21.4624 2.18722C21.4624 1.04829 22.3857 0.125 23.5246 0.125C24.6636 0.125 25.5868 1.04829 25.5868 2.18722Z" fill="#FF3B30"/>
</svg>
