<svg width="27" height="27" viewBox="0 0 27 27" fill="none" xmlns="http://www.w3.org/2000/svg">
<g clip-path="url(#clip0_1359_1377)">
<mask id="mask0_1359_1377" style="mask-type:luminance" maskUnits="userSpaceOnUse" x="0" y="0" width="27" height="27">
<path d="M0 0H27V27H0V0Z" fill="white"/>
</mask>
<g mask="url(#mask0_1359_1377)">
<path fill-rule="evenodd" clip-rule="evenodd" d="M0.964286 19.2861C1.49685 19.2861 1.92857 19.7179 1.92857 20.2504V22.179C1.92857 22.9462 2.23336 23.6821 2.77587 24.2246C3.31838 24.7671 4.0542 25.0718 4.82143 25.0718H22.1786C22.9458 25.0718 23.6817 24.7671 24.2242 24.2246C24.7667 23.6821 25.0714 22.9462 25.0714 22.179V20.2504C25.0714 19.7179 25.5032 19.2861 26.0357 19.2861C26.5682 19.2861 27 19.7179 27 20.2504V22.179C27 23.4576 26.492 24.684 25.5879 25.5883C24.6836 26.4924 23.4572 27.0004 22.1786 27.0004H4.82143C3.54271 27.0004 2.31635 26.4924 1.41216 25.5883C0.50797 24.684 0 23.4576 0 22.179V20.2504C0 19.7179 0.431726 19.2861 0.964286 19.2861Z" fill="#000001"/>
<path fill-rule="evenodd" clip-rule="evenodd" d="M7.08675 10.8396C7.49111 10.493 8.09987 10.5398 8.44645 10.9442L13.5 16.84L18.5536 10.9442C18.9002 10.5398 19.5089 10.493 19.9133 10.8396C20.3177 11.1862 20.3644 11.7949 20.0178 12.1993L14.2322 18.9493C14.049 19.163 13.7815 19.286 13.5 19.286C13.2185 19.286 12.9511 19.163 12.7679 18.9493L6.98216 12.1993C6.63558 11.7949 6.6824 11.1862 7.08675 10.8396Z" fill="#000001"/>
<path fill-rule="evenodd" clip-rule="evenodd" d="M13.5004 0C14.033 0 14.4647 0.431726 14.4647 0.964286V18.3214C14.4647 18.854 14.033 19.2857 13.5004 19.2857C12.9679 19.2857 12.5361 18.854 12.5361 18.3214V0.964286C12.5361 0.431726 12.9679 0 13.5004 0Z" fill="#000001"/>
</g>
</g>
<defs>
<clipPath id="clip0_1359_1377">
<rect width="27" height="27" fill="white"/>
</clipPath>
</defs>
</svg>
