<svg width="42" height="34" viewBox="0 0 42 34" fill="none" xmlns="http://www.w3.org/2000/svg">
<path d="M30.8001 10.2961V7.43964C30.8001 5.93755 29.3348 4.71982 27.5273 4.71982H17.7091L15.395 2.79664C14.7812 2.28653 13.9487 2 13.0807 2H5.27273C3.46528 2 2 3.21773 2 4.71982V21.0387C2 22.5408 3.46528 23.7586 5.27273 23.7586H11.9157" stroke="black" stroke-width="2.5" stroke-miterlimit="10" stroke-linecap="round" stroke-linejoin="round"/>
<path d="M17.708 31.9185V27.8388C17.708 23.3325 22.1038 19.6793 27.5262 19.6793H30.7989V16.9595C30.7989 16.2084 31.5315 15.5996 32.4353 15.5996C32.8871 15.5996 33.2962 15.7519 33.5925 15.9979L40.1379 21.4376C40.434 21.6836 40.6171 22.0236 40.6171 22.3992C40.6171 22.7747 40.434 23.1147 40.1379 23.3608L33.5925 28.8004C33.2962 29.0465 32.8871 29.1987 32.4353 29.1987C31.5315 29.1987 30.7989 28.5899 30.7989 27.8388V25.119H24.2535C20.6385 25.119 17.708 27.5544 17.708 30.5586" stroke="black" stroke-width="2.5" stroke-miterlimit="10" stroke-linecap="round" stroke-linejoin="round"/>
</svg>
