<svg width="25" height="25" viewBox="0 0 25 25" fill="none" xmlns="http://www.w3.org/2000/svg">
<path d="M18.3065 6.88677C18.0451 6.62536 17.7463 6.36395 17.4476 6.10254C17.4102 6.10254 17.4102 6.10254 17.3729 6.10254C16.8501 6.10254 16.4019 6.55067 16.4019 7.11084C16.4019 7.26022 16.4393 7.40959 16.514 7.55897L17.0741 8.08179C17.0368 8.04445 16.9994 8.0071 16.9248 7.93241C16.9621 7.96976 16.9994 8.0071 17.0741 8.08179C18.1945 9.27681 18.904 10.8826 18.904 12.6752C18.904 16.3722 15.9165 19.3598 12.2194 19.3598C8.52227 19.3598 5.53472 16.3722 5.53472 12.6752C5.53472 10.92 6.20692 9.31416 7.32725 8.11914L8.03679 7.44694V7.40959V7.37225V7.3349V7.29756V7.26022C8.03679 7.26022 8.03679 7.26022 8.03679 7.22287V7.18553C8.03679 7.14818 8.03679 7.14818 8.03679 7.11084C8.03679 6.96146 7.99945 6.84943 7.9621 6.73739V6.70005C7.9621 6.66271 7.92476 6.6627 7.92476 6.62536C7.88742 6.58802 7.88742 6.51333 7.85007 6.47598L7.81273 6.43864L7.77538 6.40129L7.73804 6.36395L7.70069 6.32661L7.66335 6.28926L7.626 6.25192C7.626 6.25192 7.62601 6.25192 7.58866 6.25192C7.58866 6.25192 7.55132 6.25192 7.55132 6.21457C7.51397 6.21457 7.51397 6.17723 7.47663 6.17723C7.47663 6.17723 7.43928 6.17723 7.43928 6.13988C7.40194 6.13988 7.36459 6.10254 7.32725 6.10254C7.28991 6.10254 7.28991 6.10254 7.25256 6.10254C7.21522 6.10254 7.17787 6.10254 7.14053 6.10254H7.10318C7.10318 6.10254 7.10318 6.10254 7.06584 6.10254C7.02849 6.10254 7.02849 6.10254 6.99115 6.10254H6.95381C6.91646 6.10254 6.91646 6.10254 6.87912 6.10254C6.61771 6.28926 6.39364 6.51333 6.16957 6.73739C4.6758 8.26851 3.74219 10.3598 3.74219 12.6378C3.74219 17.2685 7.51397 21.0403 12.1447 21.0403C16.7754 21.0403 20.5472 17.2685 20.5472 12.6378C20.6219 10.4718 19.7629 8.41789 18.3065 6.88677Z" fill="#FF3B30"/>
<path d="M12.2194 13.6375C11.7339 13.6375 11.3231 13.2268 11.3231 12.7413V4.9363C11.3231 4.45083 11.7339 4.04004 12.2194 4.04004C12.7049 4.04004 13.1157 4.45083 13.1157 4.9363V12.7413C13.1157 13.2641 12.7049 13.6375 12.2194 13.6375Z" fill="#FF3B30"/>
</svg>
