<svg width="19" height="19" viewBox="0 0 19 19" fill="none" xmlns="http://www.w3.org/2000/svg">
<g clip-path="url(#clip0_1250_1493)">
<path fill-rule="evenodd" clip-rule="evenodd" d="M2.78664 0H16.2134C17.7482 0 19 1.25183 19 2.78664V16.2134C19 17.7482 17.7482 19 16.2134 19H2.78664C1.25183 19 0 17.7482 0 16.2134V2.78664C0 1.25183 1.25183 0 2.78664 0Z" fill="#16A34A"/>
<path fill-rule="evenodd" clip-rule="evenodd" d="M3.67339 8.53516H15.3268C15.6058 8.53516 15.8335 8.76278 15.8335 9.0418V9.95604C15.8335 10.2351 15.6058 10.4627 15.3268 10.4627H3.67339C3.39437 10.4627 3.16675 10.2351 3.16675 9.95604V9.0418C3.16675 8.76278 3.39437 8.53516 3.67339 8.53516Z" fill="white"/>
<path fill-rule="evenodd" clip-rule="evenodd" d="M8.53638 15.3261V3.67266C8.53638 3.39364 8.764 3.16602 9.04302 3.16602H9.95726C10.2363 3.16602 10.4639 3.39364 10.4639 3.67266V15.3261C10.4639 15.6051 10.2363 15.8327 9.95726 15.8327H9.04302C8.764 15.8327 8.53638 15.6051 8.53638 15.3261Z" fill="white"/>
</g>
<defs>
<clipPath id="clip0_1250_1493">
<rect width="19" height="19" fill="white"/>
</clipPath>
</defs>
</svg>
