<svg width="26" height="25" viewBox="0 0 26 25" fill="none" xmlns="http://www.w3.org/2000/svg">
<path fill-rule="evenodd" clip-rule="evenodd" d="M4.31637 10.437C4.31637 6.93477 7.15548 4.09566 10.6577 4.09566C14.1599 4.09566 16.999 6.93477 16.999 10.437C16.999 13.9392 14.1599 16.7783 10.6577 16.7783C7.15548 16.7783 4.31637 13.9392 4.31637 10.437ZM10.6577 2.34277C6.18738 2.34277 2.56348 5.96668 2.56348 10.437C2.56348 14.9073 6.18738 18.5312 10.6577 18.5312C12.5771 18.5312 14.3405 17.8631 15.728 16.7468L21.3802 22.399C21.7225 22.7412 22.2774 22.7412 22.6197 22.399C22.9619 22.0567 22.9619 21.5018 22.6197 21.1595L16.9675 15.5073C18.0838 14.1198 18.7519 12.3564 18.7519 10.437C18.7519 5.96668 15.128 2.34277 10.6577 2.34277Z" fill="black"/>
</svg>
