<svg width="25" height="25" viewBox="0 0 25 25" fill="none" xmlns="http://www.w3.org/2000/svg">
<path d="M3.74219 9.15039V14.9204C3.74219 17.0404 3.74219 17.0404 5.74219 18.3904L11.2422 21.5704C12.0722 22.0504 13.4222 22.0504 14.2422 21.5704L19.7422 18.3904C21.7422 17.0404 21.7422 17.0404 21.7422 14.9304V9.15039C21.7422 7.04039 21.7422 7.04039 19.7422 5.69039L14.2422 2.51039C13.4222 2.03039 12.0722 2.03039 11.2422 2.51039L5.74219 5.69039C3.74219 7.04039 3.74219 7.04039 3.74219 9.15039Z" stroke="#292D32" stroke-width="1.5" stroke-linecap="round" stroke-linejoin="round"/>
<path d="M12.7422 15.04C14.399 15.04 15.7422 13.6969 15.7422 12.04C15.7422 10.3832 14.399 9.04004 12.7422 9.04004C11.0853 9.04004 9.74219 10.3832 9.74219 12.04C9.74219 13.6969 11.0853 15.04 12.7422 15.04Z" stroke="#292D32" stroke-width="1.5" stroke-linecap="round" stroke-linejoin="round"/>
</svg>
