<svg xmlns="http://www.w3.org/2000/svg" width="23" height="23" viewBox="0 0 23 23" fill="none">
<g clip-path="url(#clip0_1250_1261)">
<path d="M19.5195 11.5613H17.366C17.0729 11.5613 16.7892 11.6013 16.5191 11.675C15.9864 10.6278 14.8988 9.9082 13.6455 9.9082H9.83889C8.58562 9.9082 7.49799 10.6278 6.96527 11.675C6.69521 11.6013 6.41144 11.5613 6.11835 11.5613H3.96484C2.18787 11.5613 0.742188 13.007 0.742188 14.784V18.2265C0.742188 19.2927 1.6096 20.1601 2.67578 20.1601H20.8086C21.8748 20.1601 22.7422 19.2927 22.7422 18.2265V14.784C22.7422 13.007 21.2965 11.5613 19.5195 11.5613ZM6.61623 13.1309V18.8711H2.67578C2.32039 18.8711 2.03125 18.582 2.03125 18.2266V14.784C2.03125 13.7178 2.89866 12.8504 3.96484 12.8504H6.11835C6.29332 12.8504 6.46275 12.8742 6.62405 12.9179C6.61941 12.9885 6.61623 13.0594 6.61623 13.1309ZM15.5791 18.8711H7.90529V13.1309C7.90529 12.0647 8.7727 11.1973 9.83889 11.1973H13.6455C14.7117 11.1973 15.5791 12.0647 15.5791 13.1309V18.8711ZM21.4531 18.2266C21.4531 18.582 21.164 18.8711 20.8086 18.8711H16.8681V13.1309C16.8681 13.0593 16.865 12.9884 16.8603 12.9179C17.0216 12.8742 17.1911 12.8504 17.366 12.8504H19.5195C20.5857 12.8504 21.4531 13.7178 21.4531 14.784V18.2266Z" fill="#16a34a"/>
<path d="M5.04164 5.47461C3.46258 5.47461 2.17795 6.75925 2.17795 8.3383C2.17791 9.91736 3.46258 11.202 5.04164 11.202C6.62066 11.202 7.90534 9.91736 7.90534 8.3383C7.90534 6.75925 6.6207 5.47461 5.04164 5.47461ZM5.0416 9.91294C4.17333 9.91294 3.46697 9.20657 3.46697 8.3383C3.46697 7.47003 4.17333 6.76367 5.0416 6.76367C5.90987 6.76367 6.61623 7.47003 6.61623 8.3383C6.61623 9.20657 5.90987 9.91294 5.0416 9.91294Z" fill="#16a34a"/>
<path d="M11.7422 1.91797C9.63258 1.91797 7.91632 3.63423 7.91632 5.74382C7.91632 7.85341 9.63258 9.56967 11.7422 9.56967C13.8518 9.56967 15.568 7.85341 15.568 5.74382C15.568 3.63427 13.8518 1.91797 11.7422 1.91797ZM11.7422 8.28061C10.3434 8.28061 9.20538 7.14262 9.20538 5.74382C9.20538 4.34506 10.3434 3.20703 11.7422 3.20703C13.141 3.20703 14.279 4.34502 14.279 5.74382C14.279 7.14262 13.141 8.28061 11.7422 8.28061Z" fill="#16a34a"/>
<path d="M18.4427 5.47461C16.8637 5.47461 15.579 6.75925 15.579 8.3383C15.5791 9.91736 16.8637 11.202 18.4427 11.202C20.0218 11.202 21.3064 9.91736 21.3064 8.3383C21.3064 6.75925 20.0218 5.47461 18.4427 5.47461ZM18.4427 9.91294C17.5745 9.91294 16.8681 9.20657 16.8681 8.3383C16.8681 7.47003 17.5745 6.76367 18.4427 6.76367C19.311 6.76367 20.0174 7.47003 20.0174 8.3383C20.0174 9.20657 19.311 9.91294 18.4427 9.91294Z" fill="#16a34a"/>
</g>
<defs fill="#000000">
<clipPath id="clip0_1250_1261" fill="#000000">
<rect width="22" height="22" fill="#ffffff" transform="translate(0.742188 0.0390625)"/>
</clipPath>
</defs>
</svg>