<svg width="25" height="25" viewBox="0 0 25 25" fill="none" xmlns="http://www.w3.org/2000/svg">
<path d="M21.8222 8.62007V15.46C21.8222 16.58 21.2222 17.6201 20.2522 18.1901L14.3122 21.6201C13.3422 22.1801 12.1422 22.1801 11.1622 21.6201L5.22219 18.1901C4.25219 17.6301 3.65219 16.59 3.65219 15.46V8.62007C3.65219 7.50007 4.25219 6.46003 5.22219 5.89003L11.1622 2.46004C12.1322 1.90004 13.3322 1.90004 14.3122 2.46004L20.2522 5.89003C21.2222 6.46003 21.8222 7.49007 21.8222 8.62007Z" stroke="#16A34A" stroke-width="1.5" stroke-linecap="round" stroke-linejoin="round"/>
<path d="M12.7422 11.0399C14.029 11.0399 15.0722 9.99666 15.0722 8.70984C15.0722 7.42302 14.029 6.37988 12.7422 6.37988C11.4554 6.37988 10.4122 7.42302 10.4122 8.70984C10.4122 9.99666 11.4554 11.0399 12.7422 11.0399Z" stroke="#16A34A" stroke-width="1.5" stroke-linecap="round" stroke-linejoin="round"/>
<path d="M16.7422 16.6994C16.7422 14.8994 14.9522 13.4395 12.7422 13.4395C10.5322 13.4395 8.74219 14.8994 8.74219 16.6994" stroke="#16A34A" stroke-width="1.5" stroke-linecap="round" stroke-linejoin="round"/>
</svg>
